<svg xmlns="http://www.w3.org/2000/svg" width="30" height="21.5" viewBox="0 0 30 21.5">
  <path id="Icon_awesome-user-friends" data-name="Icon awesome-user-friends" d="M9,13a5.311,5.311,0,0,0,5.25-5.375A5.311,5.311,0,0,0,9,2.25,5.311,5.311,0,0,0,3.75,7.625,5.311,5.311,0,0,0,9,13Zm3.6,1.536h-.389a7.1,7.1,0,0,1-6.422,0H5.4A5.467,5.467,0,0,0,0,20.064v1.382a2.278,2.278,0,0,0,2.25,2.3h13.5a2.278,2.278,0,0,0,2.25-2.3V20.064A5.467,5.467,0,0,0,12.6,14.536ZM22.5,13A4.556,4.556,0,0,0,27,8.393a4.5,4.5,0,1,0-9,0A4.556,4.556,0,0,0,22.5,13Zm2.25,1.536h-.178a5.782,5.782,0,0,1-4.144,0H20.25a5.115,5.115,0,0,0-2.611.739,7.114,7.114,0,0,1,1.861,4.79v1.843c0,.106-.023.206-.028.307H27.75a2.278,2.278,0,0,0,2.25-2.3,5.311,5.311,0,0,0-5.25-5.375Z" transform="translate(0 -2.25)" fill="#8781f3"/>
</svg>
